<svg width="112" height="111" viewBox="0 0 112 111" fill="none" xmlns="http://www.w3.org/2000/svg">
<path d="M47.5658 42.6408C52.2264 39.9502 59.7826 39.9502 64.4431 42.6408L93.499 59.4148C98.1596 62.1053 98.1596 66.4675 93.499 69.158L64.4431 85.932C59.7826 88.6225 52.2264 88.6225 47.5658 85.932L18.5099 69.158C13.8494 66.4675 13.8494 62.1053 18.5099 59.4147L47.5658 42.6408Z" fill="#AED9EC"/>
<path d="M47.566 24.2676C52.2266 21.5771 59.7828 21.5771 64.4433 24.2677L93.4993 41.0417C98.1598 43.7322 98.1598 48.0944 93.4993 50.7849L64.4433 67.5589C59.7828 70.2494 52.2266 70.2494 47.566 67.5589L18.5101 50.7849C13.8496 48.0944 13.8496 43.7322 18.5101 41.0416L47.566 24.2676Z" fill="white"/>
</svg>
